<?xml version="1.0" encoding="utf-8"?>
<!-- Generator: Adobe Illustrator 21.1.0, SVG Export Plug-In . SVG Version: 6.00 Build 0)  -->
<svg version="1.1" id="Capa_1" xmlns="http://www.w3.org/2000/svg" xmlns:xlink="http://www.w3.org/1999/xlink" x="0px" y="0px"
	 viewBox="0 0 500 424" style="enable-background:new 0 0 500 424;" xml:space="preserve">
<style type="text/css">
	.st0{fill:#223466;}
	.st1{fill:url(#SVGID_1_);}
	.st2{fill:url(#SVGID_2_);}
	.st3{fill:url(#SVGID_3_);}
	.st4{fill:url(#SVGID_4_);}
	.st5{fill:url(#SVGID_5_);}
	.st6{fill:url(#SVGID_6_);}
</style>
<g>
	<g>
		<polygon class="st0" points="235.8,283.8 250.8,283.8 250.8,261.1 272.8,261.1 272.8,248.3 250.8,248.3 250.8,237.4 275.5,237.4 
			275.5,224.6 235.8,224.6 		"/>
		<rect x="281.1" y="224.6" class="st0" width="15" height="59.2"/>
		<path class="st0" d="M347.5,253c0-5.4-1.2-10.4-3.5-14.7c-2.3-4.3-5.6-7.7-9.7-10.1c-4.1-2.3-8.8-3.5-14-3.5h-18.9v59.2h1.8h17.2
			c5.2,0,9.9-1.2,14-3.6c4.1-2.4,7.4-5.8,9.7-10.1c2.3-4.3,3.4-9.2,3.4-14.6V253z M316.5,237.4h3.9c4,0,6.9,1.2,8.9,3.7
			c2.1,2.6,3.1,6.5,3.1,11.8v2.9c0,5-1.1,8.9-3.2,11.5c-2,2.5-5,3.7-8.9,3.7h-3.8V237.4z"/>
		<polygon class="st0" points="381.2,224.6 368.1,224.6 346.1,283.8 362.1,283.8 364.7,276.1 364.6,276 370.3,259.2 374.7,246 
			379.2,259.5 373.1,259.5 368.7,272.3 383.5,272.3 387.3,283.8 403.3,283.8 		"/>
	</g>
	<linearGradient id="SVGID_1_" gradientUnits="userSpaceOnUse" x1="63.4027" y1="273.4923" x2="237.8919" y2="308.1136">
		<stop  offset="0.7228" style="stop-color:#213464"/>
		<stop  offset="0.946" style="stop-color:#1375AD"/>
		<stop  offset="1" style="stop-color:#1375AD"/>
	</linearGradient>
	<path class="st1" d="M76.3,214.7c0,0,0.1,48,39.2,76.8c38.7,28.6,81.5,14.5,81.5,14.5c16-7.5,32-5.4,36.7,5.8
		c4.4,10.7-0.9,23.1-14.7,31.2c-13.3,7.7-62.1,24.9-107.2-8.9C47,285.7,76.3,214.7,76.3,214.7z"/>
	
		<linearGradient id="SVGID_2_" gradientUnits="userSpaceOnUse" x1="57.0186" y1="95.25" x2="231.5078" y2="129.8713" gradientTransform="matrix(0.6309 0.7759 -0.7759 0.6309 153.9497 14.2924)">
		<stop  offset="0.7228" style="stop-color:#213464"/>
		<stop  offset="0.946" style="stop-color:#1375AD"/>
		<stop  offset="1" style="stop-color:#1375AD"/>
	</linearGradient>
	<path class="st2" d="M169.8,91.6c0,0-37.2,30.3-34.9,78.9c2.3,48.1,40.2,72.4,40.2,72.4c15.9,7.7,24.4,21.4,18.6,32.1
		c-5.5,10.2-18.5,13.9-33.5,8.2c-14.3-5.4-58.5-32.5-60.7-88.8C96.2,113.6,169.8,91.6,169.8,91.6z"/>
	
		<linearGradient id="SVGID_3_" gradientUnits="userSpaceOnUse" x1="-34.9718" y1="-38.344" x2="139.5175" y2="-3.7227" gradientTransform="matrix(-0.2467 0.9691 -0.9691 -0.2467 230.8097 86.8421)">
		<stop  offset="0.7228" style="stop-color:#213464"/>
		<stop  offset="0.946" style="stop-color:#1375AD"/>
		<stop  offset="1" style="stop-color:#1375AD"/>
	</linearGradient>
	<path class="st3" d="M330.3,89.4c0,0-46.5-11.8-84.1,19C209,139,212,183.9,212,183.9c3.3,17.4-2.6,32.4-14.7,34.1
		c-11.5,1.6-22.2-6.6-26.6-22c-4.2-14.7-8.8-66.3,35-101.7C268.8,43.5,330.3,89.4,330.3,89.4z"/>
	
		<linearGradient id="SVGID_4_" gradientUnits="userSpaceOnUse" x1="-146.2909" y1="-82.9019" x2="28.1984" y2="-48.2806" gradientTransform="matrix(-0.9024 0.431 -0.431 -0.9024 248.6273 139.6221)">
		<stop  offset="0.7228" style="stop-color:#213464"/>
		<stop  offset="0.946" style="stop-color:#1375AD"/>
		<stop  offset="1" style="stop-color:#1375AD"/>
	</linearGradient>
	<path class="st4" d="M430,210c0,0-20.7-43.2-68.5-52.4c-47.3-9.1-79.8,22-79.8,22c-11.2,13.7-26.6,18.7-35.6,10.5
		c-8.6-7.8-9.2-21.3-0.1-34.5c8.7-12.6,45.3-49.2,100.5-38.2C425.9,133.3,430,210,430,210z"/>
	<radialGradient id="SVGID_5_" cx="106.6344" cy="208.1703" r="95.2605" gradientUnits="userSpaceOnUse">
		<stop  offset="0.755" style="stop-color:#94BF9F"/>
		<stop  offset="1" style="stop-color:#94BF9F;stop-opacity:0"/>
	</radialGradient>
	<path class="st5" d="M169.8,91.6c0,0-37.2,30.3-34.9,78.9c2.3,48.1,40.2,72.4,40.2,72.4c15.9,7.7,24.4,21.4,18.6,32.1
		c-5.5,10.2-18.5,13.9-33.5,8.2c-14.3-5.4-58.5-32.5-60.7-88.8C96.2,113.6,169.8,91.6,169.8,91.6z"/>
	
		<radialGradient id="SVGID_6_" cx="-88.1608" cy="4.9711" r="117.5043" fx="-53.6576" fy="18.511" gradientTransform="matrix(-0.9024 0.431 -0.431 -0.9024 248.6273 139.6221)" gradientUnits="userSpaceOnUse">
		<stop  offset="0.7903" style="stop-color:#BA3969;stop-opacity:0.85"/>
		<stop  offset="1" style="stop-color:#BA3969;stop-opacity:0"/>
		<stop  offset="1" style="stop-color:#BB3B6A;stop-opacity:0"/>
		<stop  offset="1" style="stop-color:#BD4270;stop-opacity:0"/>
		<stop  offset="1" style="stop-color:#C14D79;stop-opacity:0"/>
		<stop  offset="1" style="stop-color:#C75E85;stop-opacity:0"/>
		<stop  offset="1" style="stop-color:#CF7496;stop-opacity:0"/>
		<stop  offset="1" style="stop-color:#D890AB;stop-opacity:0"/>
		<stop  offset="1" style="stop-color:#E3B0C3;stop-opacity:0"/>
		<stop  offset="1" style="stop-color:#F0D4DF;stop-opacity:0"/>
		<stop  offset="1" style="stop-color:#FEFDFE;stop-opacity:0"/>
		<stop  offset="1" style="stop-color:#FFFFFF;stop-opacity:0"/>
	</radialGradient>
	<path class="st6" d="M430,210c0,0-20.7-43.2-68.5-52.4c-47.3-9.1-79.8,22-79.8,22c-11.2,13.7-26.6,18.7-35.6,10.5
		c-8.6-7.8-9.2-21.3-0.1-34.5c8.7-12.6,45.3-49.2,100.5-38.2C425.9,133.3,430,210,430,210z"/>
</g>
</svg>
