<?xml version="1.0" encoding="utf-8"?>
<!-- Generator: Adobe Illustrator 21.1.0, SVG Export Plug-In . SVG Version: 6.00 Build 0)  -->
<svg version="1.1" id="Capa_1" xmlns="http://www.w3.org/2000/svg" xmlns:xlink="http://www.w3.org/1999/xlink" x="0px" y="0px"
	 viewBox="0 0 500 424" style="enable-background:new 0 0 500 424;" xml:space="preserve">
<style type="text/css">
	.st0{fill:#223466;}
	.st1{fill:url(#SVGID_1_);}
	.st2{fill:url(#SVGID_2_);}
	.st3{fill:url(#SVGID_3_);}
	.st4{fill:url(#SVGID_4_);}
	.st5{fill:url(#SVGID_5_);}
	.st6{fill:url(#SVGID_6_);}
	.st7{fill:#FFFFFF;}
</style>
<g>
	<path class="st7" d="M246,154.7c-9,13.2-8.5,26.7,0.1,34.5c9,8.1,24.4,3.2,35.6-10.5c0,0,32.6-31.1,79.8-22
		C409.3,165.7,430,209,430,209s-4.1-76.7-83.5-92.5C291.3,105.4,254.7,142,246,154.7z"/>
	<polygon class="st7" points="368.1,223.6 346.1,282.8 362.1,282.8 364.7,275.1 364.6,275 370.3,258.2 374.7,245 379.2,258.5 
		373.1,258.5 368.7,271.3 383.5,271.3 387.3,282.8 403.3,282.8 381.2,223.6 	"/>
	<path class="st7" d="M347.5,252c0-5.4-1.2-10.4-3.5-14.7c-2.3-4.3-5.6-7.7-9.7-10.1c-4.1-2.3-8.8-3.5-14-3.5h-18.9v59.2h1.8h17.2
		c5.2,0,9.9-1.2,14-3.6c4.1-2.4,7.4-5.8,9.7-10.1c2.3-4.3,3.4-9.2,3.4-14.6V252z M332.4,254.8c0,5-1.1,8.9-3.2,11.5
		c-2,2.5-5,3.7-8.9,3.7h-3.8v-33.6h3.9c4,0,6.9,1.2,8.9,3.7c2.1,2.6,3.1,6.5,3.1,11.8V254.8z"/>
	<rect x="281.1" y="223.6" class="st7" width="15" height="59.2"/>
	<polygon class="st7" points="235.8,282.8 250.8,282.8 250.8,260.1 272.8,260.1 272.8,247.3 250.8,247.3 250.8,236.4 275.5,236.4 
		275.5,223.6 235.8,223.6 	"/>
	<path class="st7" d="M111.8,333.2c45.1,33.7,93.9,16.5,107.2,8.9c13.8-8,19.2-20.4,14.7-31.2c-4.6-11.2-20.6-13.3-36.7-5.8
		c0,0-42.8,14-81.5-14.5c-39.1-28.8-39.2-76.8-39.2-76.8S47,284.7,111.8,333.2z"/>
	<path class="st7" d="M170.8,195c4.4,15.4,15.1,23.6,26.6,22c12-1.7,18-16.7,14.7-34.1c0,0-3-44.9,34.2-75.4
		c37.6-30.8,84.1-19,84.1-19s-61.5-45.9-124.5,4.9C162,128.7,166.6,180.3,170.8,195z"/>
	<path class="st7" d="M160.2,282.2c14.9,5.7,27.9,2,33.5-8.2c5.8-10.7-2.7-24.4-18.6-32.1c0,0-37.9-24.3-40.2-72.4
		c-2.3-48.6,34.9-78.9,34.9-78.9s-73.5,22-70.3,102.9C101.7,249.7,145.9,276.8,160.2,282.2z"/>
</g>
</svg>
